<?xml version="1.0" encoding="UTF-8" standalone="no"?>
<svg
   xmlns:dc="http://purl.org/dc/elements/1.1/"
   xmlns:cc="http://creativecommons.org/ns#"
   xmlns:rdf="http://www.w3.org/1999/02/22-rdf-syntax-ns#"
   xmlns:svg="http://www.w3.org/2000/svg"
   xmlns="http://www.w3.org/2000/svg"
   xmlns:sodipodi="http://sodipodi.sourceforge.net/DTD/sodipodi-0.dtd"
   xmlns:inkscape="http://www.inkscape.org/namespaces/inkscape"
   height="375pt"
   viewBox="-40 0 375 375.00115"
   width="375pt"
   version="1.1"
   id="svg10"
   sodipodi:docname="delete2.svg"
   inkscape:version="1.0 (9f2f71dc58, 2020-08-02)">
  <metadata
     id="metadata16">
    <rdf:RDF>
      <cc:Work
         rdf:about="">
        <dc:format>image/svg+xml</dc:format>
        <dc:type
           rdf:resource="http://purl.org/dc/dcmitype/StillImage" />
        <dc:title></dc:title>
      </cc:Work>
    </rdf:RDF>
  </metadata>
  <defs
     id="defs14" />
  <sodipodi:namedview
     pagecolor="#ffffff"
     bordercolor="#666666"
     borderopacity="1"
     objecttolerance="10"
     gridtolerance="10"
     guidetolerance="10"
     inkscape:pageopacity="0"
     inkscape:pageshadow="2"
     inkscape:window-width="1848"
     inkscape:window-height="1016"
     id="namedview12"
     showgrid="false"
     fit-margin-top="0"
     fit-margin-left="0"
     fit-margin-right="0"
     fit-margin-bottom="0"
     inkscape:zoom="0.51780552"
     inkscape:cx="661.80131"
     inkscape:cy="304.93993"
     inkscape:window-x="72"
     inkscape:window-y="27"
     inkscape:window-maximized="1"
     inkscape:current-layer="svg10" />
  <g
     id="g868"
     transform="translate(-428.8072,-30.046143)">
    <circle
       style="fill:#9871f5;fill-opacity:1;stroke-width:4.97749;stroke-linecap:round;paint-order:stroke fill markers"
       id="path841"
       cx="576.30713"
       cy="217.54672"
       r="187.50058" />
    <g
       id="g860"
       transform="translate(402.90869,4.0473797)"
       style="fill:#ffffff;fill-opacity:1">
      <path
         d="m 216.75231,170.29521 c -4.05868,0 -7.34811,3.28943 -7.34811,7.34811 v 138.87937 c 0,4.05581 3.28943,7.34811 7.34811,7.34811 4.05869,0 7.34812,-3.2923 7.34812,-7.34811 V 177.64332 c 0,-4.05868 -3.28943,-7.34811 -7.34812,-7.34811 z m 0,0"
         id="path2"
         style="fill:#ffffff;fill-opacity:1;stroke-width:0.734811" />
      <path
         d="m 130.04456,170.29521 c -4.05868,0 -7.34811,3.28943 -7.34811,7.34811 v 138.87937 c 0,4.05581 3.28943,7.34811 7.34811,7.34811 4.05869,0 7.34812,-3.2923 7.34812,-7.34811 V 177.64332 c 0,-4.05868 -3.28943,-7.34811 -7.34812,-7.34811 z m 0,0"
         id="path4"
         style="fill:#ffffff;fill-opacity:1;stroke-width:0.734811" />
      <path
         d="m 66.850777,150.02762 v 181.04204 c 0,10.70069 3.923778,20.74981 10.778191,27.96015 6.822839,7.23043 16.317982,11.33504 26.255162,11.35226 h 139.02862 c 9.94005,-0.0172 19.43519,-4.12183 26.25516,-11.35226 6.85441,-7.21034 10.77819,-17.25946 10.77819,-27.96015 V 150.02762 c 13.62558,-3.61665 22.4548,-16.78011 20.63213,-30.76162 -1.82555,-13.97864 -13.73466,-24.435354 -27.83386,-24.438224 H 235.1226 v -9.185143 c 0.043,-7.724131 -3.01101,-15.141134 -8.47904,-20.597683 -5.46803,-5.453679 -12.89651,-8.490517 -20.62064,-8.427369 h -65.24896 c -7.72413,-0.06315 -15.15262,2.97369 -20.62065,8.427369 -5.46803,5.456549 -8.52209,12.873552 -8.47903,20.597683 v 9.185143 H 74.052503 c -14.099194,0.0029 -26.008306,10.459584 -27.833854,24.438224 -1.822677,13.98151 7.006542,27.14497 20.632128,30.76162 z M 242.91275,355.68584 H 103.88413 c -12.563558,0 -22.337124,-10.79254 -22.337124,-24.61618 V 150.67345 H 265.24987 v 180.39621 c 0,13.82364 -9.77357,24.61618 -22.33712,24.61618 z M 126.3705,85.642633 c -0.0488,-3.826186 1.45528,-7.508854 4.17063,-10.20986 2.71249,-2.701006 6.40377,-4.184982 10.23283,-4.118963 h 65.24896 c 3.82905,-0.06602 7.52033,1.417957 10.23282,4.118963 2.71536,2.698135 4.21943,6.383674 4.17063,10.20986 v 9.185143 H 126.3705 Z M 74.052503,109.52401 H 272.74437 c 7.30506,0 13.22661,5.92154 13.22661,13.2266 0,7.30506 -5.92155,13.22661 -13.22661,13.22661 H 74.052503 c -7.305059,0 -13.226606,-5.92155 -13.226606,-13.22661 0,-7.30506 5.921547,-13.2266 13.226606,-13.2266 z m 0,0"
         id="path6"
         style="fill:#ffffff;fill-opacity:1;stroke-width:0.734811" />
      <path
         d="m 173.39844,170.29521 c -4.05869,0 -7.34812,3.28943 -7.34812,7.34811 v 138.87937 c 0,4.05581 3.28943,7.34811 7.34812,7.34811 4.05868,0 7.34811,-3.2923 7.34811,-7.34811 V 177.64332 c 0,-4.05868 -3.28943,-7.34811 -7.34811,-7.34811 z m 0,0"
         id="path8"
         style="fill:#ffffff;fill-opacity:1;stroke-width:0.734811" />
    </g>
  </g>
</svg>
